<svg width="280" height="80" viewBox="0 0 280 80" xmlns="http://www.w3.org/2000/svg">
  <defs>
    <linearGradient id="bgGradient" x1="0%" y1="0%" x2="100%" y2="100%">
      <stop offset="0%" style="stop-color:#2563eb;stop-opacity:1" />
      <stop offset="100%" style="stop-color:#1e40af;stop-opacity:1" />
    </linearGradient>
    <linearGradient id="accentGradient" x1="0%" y1="0%" x2="100%" y2="100%">
      <stop offset="0%" style="stop-color:#f97316;stop-opacity:1" />
      <stop offset="100%" style="stop-color:#ea580c;stop-opacity:1" />
    </linearGradient>
  </defs>
  
  <!-- Symmetrical background elements -->
  <!-- Left side geometric patterns -->
  <g opacity="0.15">
    <!-- Left corner accent squares -->
    <rect x="20" y="15" width="6" height="6" fill="url(#accentGradient)" rx="1"/>
    <rect x="30" y="25" width="4" height="4" fill="url(#accentGradient)" rx="1"/>
    <rect x="15" y="35" width="5" height="5" fill="url(#accentGradient)" rx="1"/>
    
    <!-- Left circuit lines -->
    <path d="M26 18 L40 18 L40 25" stroke="url(#accentGradient)" stroke-width="1" fill="none"/>
    <path d="M18 38 L35 38 L35 30" stroke="url(#accentGradient)" stroke-width="1" fill="none"/>
    <path d="M45 30 L60 30" stroke="url(#accentGradient)" stroke-width="1" fill="none"/>
  </g>
  
  <!-- Right side geometric patterns (mirrored) -->
  <g opacity="0.15">
    <!-- Right corner accent squares -->
    <rect x="254" y="15" width="6" height="6" fill="url(#accentGradient)" rx="1"/>
    <rect x="246" y="25" width="4" height="4" fill="url(#accentGradient)" rx="1"/>
    <rect x="260" y="35" width="5" height="5" fill="url(#accentGradient)" rx="1"/>
    
    <!-- Right circuit lines (mirrored) -->
    <path d="M254 18 L240 18 L240 25" stroke="url(#accentGradient)" stroke-width="1" fill="none"/>
    <path d="M262 38 L245 38 L245 30" stroke="url(#accentGradient)" stroke-width="1" fill="none"/>
    <path d="M235 30 L220 30" stroke="url(#accentGradient)" stroke-width="1" fill="none"/>
  </g>
  
  <!-- Circuit board background -->
  <g opacity="0.25">
    <!-- Main circuit traces (horizontal) -->
    <path d="M5 20 L50 20 L55 25 L80 25 L85 30 L140 30" stroke="url(#accentGradient)" stroke-width="1.5" fill="none"/>
    <path d="M140 30 L145 25 L180 25 L185 20 L230 20 L235 25 L275 25" stroke="url(#accentGradient)" stroke-width="1.5" fill="none"/>
    
    <path d="M5 50 L45 50 L50 45 L85 45 L90 40 L140 40" stroke="url(#accentGradient)" stroke-width="2" fill="none"/>
    <path d="M140 40 L190 40 L195 45 L230 45 L235 50 L275 50" stroke="url(#accentGradient)" stroke-width="2" fill="none"/>
    
    <path d="M5 60 L40 60 L45 55 L80 55 L85 50 L140 50" stroke="url(#accentGradient)" stroke-width="1.2" fill="none"/>
    <path d="M140 50 L195 50 L200 55 L235 55 L240 60 L275 60" stroke="url(#accentGradient)" stroke-width="1.2" fill="none"/>
    
    <!-- Vertical circuit traces -->
    <path d="M60 5 L60 15 L65 20 L65 35 L60 40 L60 75" stroke="url(#accentGradient)" stroke-width="1" fill="none"/>
    <path d="M100 5 L100 20 L95 25 L95 45 L100 50 L100 75" stroke="url(#accentGradient)" stroke-width="1.2" fill="none"/>
    <path d="M180 5 L180 20 L185 25 L185 45 L180 50 L180 75" stroke="url(#accentGradient)" stroke-width="1.2" fill="none"/>
    <path d="M220 5 L220 15 L215 20 L215 35 L220 40 L220 75" stroke="url(#accentGradient)" stroke-width="1" fill="none"/>
    
    <!-- Circuit pads/vias (small circles) -->
    <circle cx="50" cy="20" r="1.5" fill="url(#accentGradient)"/>
    <circle cx="85" cy="30" r="1.5" fill="url(#accentGradient)"/>
    <circle cx="145" cy="25" r="1.5" fill="url(#accentGradient)"/>
    <circle cx="185" cy="20" r="1.5" fill="url(#accentGradient)"/>
    <circle cx="230" cy="20" r="1.5" fill="url(#accentGradient)"/>
    
    <circle cx="45" cy="50" r="1.5" fill="url(#accentGradient)"/>
    <circle cx="90" cy="40" r="1.5" fill="url(#accentGradient)"/>
    <circle cx="190" cy="40" r="1.5" fill="url(#accentGradient)"/>
    <circle cx="235" cy="50" r="1.5" fill="url(#accentGradient)"/>
    
    <circle cx="60" cy="15" r="1.2" fill="url(#accentGradient)"/>
    <circle cx="100" cy="20" r="1.2" fill="url(#accentGradient)"/>
    <circle cx="180" cy="20" r="1.2" fill="url(#accentGradient)"/>
    <circle cx="220" cy="15" r="1.2" fill="url(#accentGradient)"/>
    
    <!-- Microchips (detailed IC packages) -->
    <!-- Left microchip -->
    <g opacity="0.6">
      <rect x="25" y="32" width="18" height="12" fill="url(#bgGradient)" stroke="url(#accentGradient)" stroke-width="0.8" rx="1"/>
      <!-- Chip pins -->
      <rect x="23" y="34" width="2" height="1" fill="url(#accentGradient)"/>
      <rect x="23" y="36" width="2" height="1" fill="url(#accentGradient)"/>
      <rect x="23" y="38" width="2" height="1" fill="url(#accentGradient)"/>
      <rect x="23" y="40" width="2" height="1" fill="url(#accentGradient)"/>
      <rect x="43" y="34" width="2" height="1" fill="url(#accentGradient)"/>
      <rect x="43" y="36" width="2" height="1" fill="url(#accentGradient)"/>
      <rect x="43" y="38" width="2" height="1" fill="url(#accentGradient)"/>
      <rect x="43" y="40" width="2" height="1" fill="url(#accentGradient)"/>
      <!-- Chip label dot -->
      <circle cx="28" cy="35" r="0.8" fill="url(#accentGradient)"/>
      <!-- Internal circuit pattern -->
      <rect x="29" y="36" width="10" height="1" fill="url(#accentGradient)" opacity="0.4"/>
      <rect x="29" y="39" width="8" height="1" fill="url(#accentGradient)" opacity="0.4"/>
    </g>
    
    <!-- Right microchip -->
    <g opacity="0.6">
      <rect x="237" y="32" width="18" height="12" fill="url(#bgGradient)" stroke="url(#accentGradient)" stroke-width="0.8" rx="1"/>
      <!-- Chip pins -->
      <rect x="235" y="34" width="2" height="1" fill="url(#accentGradient)"/>
      <rect x="235" y="36" width="2" height="1" fill="url(#accentGradient)"/>
      <rect x="235" y="38" width="2" height="1" fill="url(#accentGradient)"/>
      <rect x="235" y="40" width="2" height="1" fill="url(#accentGradient)"/>
      <rect x="255" y="34" width="2" height="1" fill="url(#accentGradient)"/>
      <rect x="255" y="36" width="2" height="1" fill="url(#accentGradient)"/>
      <rect x="255" y="38" width="2" height="1" fill="url(#accentGradient)"/>
      <rect x="255" y="40" width="2" height="1" fill="url(#accentGradient)"/>
      <!-- Chip label dot -->
      <circle cx="252" cy="35" r="0.8" fill="url(#accentGradient)"/>
      <!-- Internal circuit pattern -->
      <rect x="241" y="36" width="10" height="1" fill="url(#accentGradient)" opacity="0.4"/>
      <rect x="243" y="39" width="8" height="1" fill="url(#accentGradient)" opacity="0.4"/>
    </g>
    
    <!-- Smaller components (capacitors/resistors) -->
    <rect x="70" y="12" width="8" height="4" fill="none" stroke="url(#accentGradient)" stroke-width="0.6" rx="0.5" opacity="0.5"/>
    <rect x="202" y="12" width="8" height="4" fill="none" stroke="url(#accentGradient)" stroke-width="0.6" rx="0.5" opacity="0.5"/>
    
    <!-- Additional circuit traces for complexity -->
    <path d="M30 35 L30 45" stroke="url(#accentGradient)" stroke-width="0.8" fill="none" opacity="0.7"/>
    <path d="M250 35 L250 45" stroke="url(#accentGradient)" stroke-width="0.8" fill="none" opacity="0.7"/>
    <path d="M74 16 L74 8" stroke="url(#accentGradient)" stroke-width="0.6" fill="none" opacity="0.5"/>
    <path d="M206 16 L206 8" stroke="url(#accentGradient)" stroke-width="0.6" fill="none" opacity="0.5"/>
  </g>
  
  <!-- Central favicon logo -->
  <g transform="translate(110, 10)">
    <!-- Background circle - larger version -->
    <circle cx="30" cy="30" r="28" fill="url(#bgGradient)" stroke="#1e40af" stroke-width="2"/>
    
    <!-- Tech-inspired geometric accents -->
    <rect x="12" y="12" width="6" height="6" fill="url(#accentGradient)" rx="1"/>
    <rect x="42" y="42" width="6" height="6" fill="url(#accentGradient)" rx="1"/>
    
    <!-- Circuit lines -->
    <path d="M18 15 L42 15 L42 18" stroke="url(#accentGradient)" stroke-width="1.5" fill="none" opacity="0.8"/>
    <path d="M42 45 L18 45 L18 42" stroke="url(#accentGradient)" stroke-width="1.5" fill="none" opacity="0.8"/>
    <path d="M15 18 L15 25" stroke="url(#accentGradient)" stroke-width="1" fill="none" opacity="0.6"/>
    <path d="M45 35 L45 42" stroke="url(#accentGradient)" stroke-width="1" fill="none" opacity="0.6"/>
    
    <!-- Enhanced initials KN -->
    <g fill="white" font-family="Arial, sans-serif" font-weight="bold">
      <!-- K -->
      <path d="M21 20 L21 40 M21 30 L29 20 M21 30 L29 40" stroke="white" stroke-width="2.5" fill="none" stroke-linecap="round" stroke-linejoin="round"/>
      <!-- N -->
      <path d="M32 20 L32 40 M32 20 L40 40 M40 40 L40 20" stroke="white" stroke-width="2.5" fill="none" stroke-linecap="round" stroke-linejoin="round"/>
    </g>
  </g>
  
  <!-- Symmetrical corner accents -->
  <g opacity="0.2">
    <!-- Top corners -->
    <circle cx="25" cy="10" r="2" fill="url(#accentGradient)"/>
    <circle cx="255" cy="10" r="2" fill="url(#accentGradient)"/>
    
    <!-- Bottom corners -->
    <circle cx="25" cy="70" r="2" fill="url(#accentGradient)"/>
    <circle cx="255" cy="70" r="2" fill="url(#accentGradient)"/>
  </g>
</svg>